# xmcd
#
# Track frame offsets: 
#        150
#        14638
#        29770
#        46025
#        55662
#        70573
#        88885
#        100877
#        120945
#        133387
#        147889
#        164040
#        175691
#        190238
#        205035
#
# Disc length: 2886 seconds
#
# Revision: 0
# Processed by: cddbd v1.5.2PL0 Copyright (c) Steve Scherf et al.
# Submitted via: ExactAudioCopy v1.3
#
DISCID=d20b440f
DTITLE=Warren Stephens - She's Gone
DYEAR=2019
DGENRE=Electric Blues
TTITLE0=Grass Ain't Greener
TTITLE1=Bad, Bad Dream
TTITLE2=Every Time I See a Rainbow
TTITLE3=Woman Gone Blues
TTITLE4=Better Than I've Been
TTITLE5=Bad Case of the Blues
TTITLE6=Copperhead
TTITLE7=Every Day is Gonna Be a Blues Day
TTITLE8=She's Gone
TTITLE9=Nobody But You
TTITLE10=Broken Man
TTITLE11=Thinking About My Baby Blues
TTITLE12=Stormy Spring
TTITLE13=Why Does Love Treat Me Blue
TTITLE14=You're Fine as Wine
EXTD=
EXTT0=
EXTT1=
EXTT2=
EXTT3=
EXTT4=
EXTT5=
EXTT6=
EXTT7=
EXTT8=
EXTT9=
EXTT10=
EXTT11=
EXTT12=
EXTT13=
EXTT14=
PLAYORDER=
